<mxfile host="app.diagrams.net" agent="Mozilla/5.0 (Windows NT 10.0; Win64; x64; rv:133.0) Gecko/20100101 Firefox/133.0" version="26.0.11">
  <diagram name="Page-1" id="CoN9f8dzZWgc-2Q39lgD">
    <mxGraphModel dx="1168" dy="733" grid="1" gridSize="10" guides="1" tooltips="1" connect="1" arrows="1" fold="1" page="1" pageScale="1" pageWidth="850" pageHeight="1100" math="0" shadow="0">
      <root>
        <mxCell id="0" />
        <mxCell id="1" parent="0" />
        <mxCell id="j0VB-LqODdi4qGJzn2hK-1" value="Reg0" style="rounded=0;whiteSpace=wrap;html=1;" vertex="1" parent="1">
          <mxGeometry x="120" y="180" width="60" height="120" as="geometry" />
        </mxCell>
        <mxCell id="j0VB-LqODdi4qGJzn2hK-2" value="Delay Buffer" style="text;html=1;align=center;verticalAlign=middle;whiteSpace=wrap;rounded=0;" vertex="1" parent="1">
          <mxGeometry x="20" y="50" width="60" height="30" as="geometry" />
        </mxCell>
        <mxCell id="j0VB-LqODdi4qGJzn2hK-4" value="" style="endArrow=classic;html=1;rounded=0;" edge="1" parent="1">
          <mxGeometry width="50" height="50" relative="1" as="geometry">
            <mxPoint x="60" y="240" as="sourcePoint" />
            <mxPoint x="120" y="240" as="targetPoint" />
          </mxGeometry>
        </mxCell>
        <mxCell id="j0VB-LqODdi4qGJzn2hK-19" value="Input" style="edgeLabel;html=1;align=center;verticalAlign=middle;resizable=0;points=[];" vertex="1" connectable="0" parent="j0VB-LqODdi4qGJzn2hK-4">
          <mxGeometry x="-0.2667" y="-2" relative="1" as="geometry">
            <mxPoint as="offset" />
          </mxGeometry>
        </mxCell>
        <mxCell id="j0VB-LqODdi4qGJzn2hK-5" value="" style="endArrow=classic;html=1;rounded=0;" edge="1" parent="1">
          <mxGeometry width="50" height="50" relative="1" as="geometry">
            <mxPoint x="180" y="239.5" as="sourcePoint" />
            <mxPoint x="240" y="239.5" as="targetPoint" />
          </mxGeometry>
        </mxCell>
        <mxCell id="j0VB-LqODdi4qGJzn2hK-6" value="Reg1" style="rounded=0;whiteSpace=wrap;html=1;" vertex="1" parent="1">
          <mxGeometry x="240" y="180" width="60" height="120" as="geometry" />
        </mxCell>
        <mxCell id="j0VB-LqODdi4qGJzn2hK-7" value="Reg2" style="rounded=0;whiteSpace=wrap;html=1;" vertex="1" parent="1">
          <mxGeometry x="360" y="180" width="60" height="120" as="geometry" />
        </mxCell>
        <mxCell id="j0VB-LqODdi4qGJzn2hK-8" value="" style="endArrow=classic;html=1;rounded=0;" edge="1" parent="1">
          <mxGeometry width="50" height="50" relative="1" as="geometry">
            <mxPoint x="300" y="239.5" as="sourcePoint" />
            <mxPoint x="360" y="239.5" as="targetPoint" />
          </mxGeometry>
        </mxCell>
        <mxCell id="j0VB-LqODdi4qGJzn2hK-9" value="" style="ellipse;whiteSpace=wrap;html=1;aspect=fixed;fillColor=#000000;" vertex="1" parent="1">
          <mxGeometry x="450" y="290" width="10" height="10" as="geometry" />
        </mxCell>
        <mxCell id="j0VB-LqODdi4qGJzn2hK-10" value="" style="ellipse;whiteSpace=wrap;html=1;aspect=fixed;fillColor=#000000;" vertex="1" parent="1">
          <mxGeometry x="470" y="290" width="10" height="10" as="geometry" />
        </mxCell>
        <mxCell id="j0VB-LqODdi4qGJzn2hK-11" value="" style="ellipse;whiteSpace=wrap;html=1;aspect=fixed;fillColor=#000000;" vertex="1" parent="1">
          <mxGeometry x="490" y="290" width="10" height="10" as="geometry" />
        </mxCell>
        <mxCell id="j0VB-LqODdi4qGJzn2hK-12" value="RegN" style="rounded=0;whiteSpace=wrap;html=1;" vertex="1" parent="1">
          <mxGeometry x="530" y="180" width="60" height="120" as="geometry" />
        </mxCell>
        <mxCell id="j0VB-LqODdi4qGJzn2hK-13" value="" style="endArrow=classic;html=1;rounded=0;entryX=0;entryY=0.5;entryDx=0;entryDy=0;" edge="1" parent="1" target="j0VB-LqODdi4qGJzn2hK-12">
          <mxGeometry width="50" height="50" relative="1" as="geometry">
            <mxPoint x="420" y="239.5" as="sourcePoint" />
            <mxPoint x="480" y="239.5" as="targetPoint" />
          </mxGeometry>
        </mxCell>
        <mxCell id="j0VB-LqODdi4qGJzn2hK-14" value="" style="endArrow=classic;html=1;rounded=0;" edge="1" parent="1">
          <mxGeometry width="50" height="50" relative="1" as="geometry">
            <mxPoint x="210" y="239.5" as="sourcePoint" />
            <mxPoint x="210" y="130" as="targetPoint" />
          </mxGeometry>
        </mxCell>
        <mxCell id="j0VB-LqODdi4qGJzn2hK-15" value="" style="endArrow=classic;html=1;rounded=0;" edge="1" parent="1">
          <mxGeometry width="50" height="50" relative="1" as="geometry">
            <mxPoint x="330" y="239.5" as="sourcePoint" />
            <mxPoint x="330" y="130" as="targetPoint" />
          </mxGeometry>
        </mxCell>
        <mxCell id="j0VB-LqODdi4qGJzn2hK-16" value="" style="endArrow=classic;html=1;rounded=0;" edge="1" parent="1">
          <mxGeometry width="50" height="50" relative="1" as="geometry">
            <mxPoint x="474.5" y="239.5" as="sourcePoint" />
            <mxPoint x="474.5" y="130" as="targetPoint" />
          </mxGeometry>
        </mxCell>
        <mxCell id="j0VB-LqODdi4qGJzn2hK-17" value="Mux" style="shape=trapezoid;perimeter=trapezoidPerimeter;whiteSpace=wrap;html=1;fixedSize=1;" vertex="1" parent="1">
          <mxGeometry x="150" y="70" width="390" height="60" as="geometry" />
        </mxCell>
        <mxCell id="j0VB-LqODdi4qGJzn2hK-18" value="" style="endArrow=classic;html=1;rounded=0;" edge="1" parent="1" target="j0VB-LqODdi4qGJzn2hK-17">
          <mxGeometry width="50" height="50" relative="1" as="geometry">
            <mxPoint x="610" y="100" as="sourcePoint" />
            <mxPoint x="660" y="60" as="targetPoint" />
          </mxGeometry>
        </mxCell>
        <mxCell id="j0VB-LqODdi4qGJzn2hK-20" value="Delay Amount" style="text;html=1;align=center;verticalAlign=middle;resizable=0;points=[];autosize=1;strokeColor=none;fillColor=none;" vertex="1" parent="1">
          <mxGeometry x="530" y="78" width="100" height="30" as="geometry" />
        </mxCell>
        <mxCell id="j0VB-LqODdi4qGJzn2hK-21" value="Output" style="endArrow=classic;html=1;rounded=0;" edge="1" parent="1">
          <mxGeometry width="50" height="50" relative="1" as="geometry">
            <mxPoint x="340" y="70" as="sourcePoint" />
            <mxPoint x="340" y="20" as="targetPoint" />
          </mxGeometry>
        </mxCell>
        <mxCell id="j0VB-LqODdi4qGJzn2hK-22" value="N is the maximum delay value" style="text;html=1;align=center;verticalAlign=middle;whiteSpace=wrap;rounded=0;" vertex="1" parent="1">
          <mxGeometry x="650" y="50" width="150" height="30" as="geometry" />
        </mxCell>
      </root>
    </mxGraphModel>
  </diagram>
</mxfile>
